<svg width="150" height="77" viewBox="0 0 542 113" fill="none" xmlns="http://www.w3.org/2000/svg">
<g clip-path="url(#clip0_434_2301)">
<path d="M0.132105 0.769531L101.489 1.06378C101.787 1.06378 102.084 1.35802 101.787 1.65226L93.1672 16.3645C91.3837 19.6012 87.8167 21.3667 84.25 21.3667H27.4778C27.1806 21.3667 27.1806 21.6609 27.1806 21.6609V46.0832C27.1806 46.3775 27.4778 46.3775 27.4778 46.3775H80.3858C80.6831 46.3775 80.9803 46.6719 80.6831 46.9659L72.0632 61.6781C70.2797 64.9149 66.7131 66.6803 63.1461 66.6803H27.4778C27.1806 66.6803 27.1806 66.9746 27.1806 66.9746V111.7C27.1806 111.994 26.8833 111.994 26.8833 111.994H0.429335C0.1321 111.994 0.132105 111.7 0.132105 111.7V1.06378C-0.165131 0.769532 0.132105 0.769531 0.132105 0.769531Z" fill="#112F4F"/>
<path d="M139.831 1.05859V112.283H228.11C231.677 112.283 235.244 110.223 237.027 107.281L245.944 92.2745H167.474V66.9695H207.006C210.573 66.9695 214.14 64.9098 215.924 61.9674L224.84 46.9608H167.771V21.6557H228.407C231.974 21.6557 235.541 19.596 237.324 16.6536L246.539 1.05859H139.831Z" fill="#112F4F"/>
<path d="M310.438 21.3615H357.401C361.265 21.3615 364.534 24.5982 364.534 28.4234V39.6045C364.534 43.43 361.265 46.6664 357.401 46.6664H310.438V21.3615ZM366.616 1.05859H282.795V112.283H310.141V66.6752H327.975C331.542 66.6752 335.109 68.7349 336.892 71.6774L357.698 106.987C359.482 110.223 363.049 111.989 366.616 111.989H392.177L365.428 66.6752H366.616C380.587 66.6752 391.88 55.4938 391.88 41.6643V26.0694C392.177 12.2399 380.587 1.05859 366.616 1.05859Z" fill="#112F4F"/>
<path d="M508.412 91.9766H453.72V31.3619C453.72 25.7713 458.18 21.3576 463.828 21.3576H518.517V81.9722C518.517 87.5627 514.06 91.9766 508.412 91.9766ZM429.646 26.0655V86.9744C429.646 100.804 440.939 111.985 454.911 111.985H516.736C530.704 111.985 542 100.804 542 86.9744V26.0655C542 12.236 530.704 1.05469 516.736 1.05469H454.911C440.939 1.05469 429.646 12.236 429.646 26.0655Z" fill="#17B7D0"/>
<path d="M485.826 75.2131C483.15 75.2131 481.072 73.1534 481.072 70.505V42.5519C481.072 39.9035 483.15 37.8438 485.826 37.8438C488.502 37.8438 490.584 39.9035 490.584 42.5519V70.505C490.584 73.1534 488.502 75.2131 485.826 75.2131Z" fill="#17B7D0"/>
<path d="M504.542 66.6674C501.866 66.6674 499.784 64.6077 499.784 61.9596V50.7781C499.784 48.1301 501.866 46.0703 504.542 46.0703C507.217 46.0703 509.295 48.1301 509.295 50.7781V62.2536C509.295 64.6077 507.217 66.6674 504.542 66.6674Z" fill="#17B7D0"/>
<path d="M467.402 66.6674C464.726 66.6674 462.645 64.6077 462.645 61.9596V50.7781C462.645 48.1301 464.726 46.0703 467.402 46.0703C470.078 46.0703 472.159 48.1301 472.159 50.7781V62.2536C471.859 64.6077 469.781 66.6674 467.402 66.6674Z" fill="#17B7D0"/>
</g>
<defs>
<clipPath id="clip0_434_2301">
<rect width="542" height="111.514" fill="white" transform="translate(0 0.769531)"/>
</clipPath>
</defs>
</svg>
